name C:\Users\u0101727\Documents\MyRepositories\upper-imu-dc\Results\main_tracking\Case_58\kinematics.mot
datacolumns 10
datarows 18
range 3.00000000 3.17000000
endheader 
time	clav_prot	clav_elev	scapula_abduction	scapula_elevation	scapula_upward_rot	scapula_winging	plane_elv	shoulder_elv	axial_rot	
          3.00000000	        -22.96349187	          6.01723890	        -19.79386638	          5.39033665	          7.81642555	          5.61531210	          9.89911714	         14.36286905	         20.30560717	
          3.01000000	        -22.87083343	          5.98817762	        -19.65384367	          5.39462628	          7.73776278	          5.64258365	          9.85823068	         14.44054488	         19.99854503	
          3.02000000	        -22.77541602	          5.95711513	        -19.50909159	          5.39941563	          7.66348078	          5.66810295	          9.81316823	         14.52642413	         19.68982033	
          3.03000000	        -22.67763723	          5.92711366	        -19.35770891	          5.40354560	          7.59443633	          5.69161857	          9.76206062	         14.62010306	         19.37637940	
          3.04000000	        -22.57627678	          5.89858911	        -19.19716590	          5.40708841	          7.53168276	          5.71280105	          9.70419205	         14.72176788	         19.05703587	
          3.05000000	        -22.46892228	          5.87194312	        -19.02294487	          5.41026414	          7.47599697	          5.73141111	          9.63932503	         14.83177833	         18.73126087	
          3.06000000	        -22.35245807	          5.84793610	        -18.82943952	          5.41361868	          7.42814324	          5.74720596	          9.56744808	         14.95029319	         18.39914701	
          3.07000000	        -22.26168732	          5.83024441	        -18.68040806	          5.41782043	          7.38821510	          5.76013803	          9.48934434	         15.07805087	         18.05993593	
          3.08000000	        -22.28172302	          5.82477080	        -18.73013227	          5.42195838	          7.35701705	          5.77021165	          9.40309033	         15.21556398	         17.71634653	
          3.09000000	        -22.21046572	          5.81370047	        -18.61063774	          5.42524720	          7.33279078	          5.77798729	          9.31056942	         15.36591401	         17.36681884	
          3.10000000	        -22.15756262	          5.80581524	        -18.52126835	          5.42748733	          7.31626368	          5.78317162	          9.21050400	         15.52911955	         17.01307933	
          3.11000000	        -22.10954273	          5.79987825	        -18.43766299	          5.42869396	          7.30698138	          5.78593967	          9.10329505	         15.70634318	         16.65449929	
          3.12000000	        -22.06571473	          5.79570282	        -18.35848047	          5.42875004	          7.30499313	          5.78628655	          8.98853022	         15.89811987	         16.29109567	
          3.13000000	        -22.02654867	          5.79313208	        -18.28446345	          5.42748940	          7.31035000	          5.78420525	          8.86587985	         16.10488025	         15.92254143	
          3.14000000	        -21.99224628	          5.79201397	        -18.21584677	          5.42474963	          7.32315811	          5.77966930	          8.73498989	         16.32686868	         15.54842243	
          3.15000000	        -21.96286230	          5.79221319	        -18.15259337	          5.42038220	          7.34355148	          5.77264128	          8.59555338	         16.56416670	         15.16825833	
          3.16000000	        -21.93839042	          5.79361771	        -18.09455219	          5.41425331	          7.37168888	          5.76307395	          8.44735035	         16.81669043	         14.78154803	
          3.17000000	        -21.91878119	          5.79613962	        -18.04149663	          5.40624728	          7.40774152	          5.75091436	          8.29030045	         17.08419860	         14.38782934	
